<svg width="56" height="56" viewBox="0 0 56 56" fill="none" xmlns="http://www.w3.org/2000/svg">
<g clip-path="url(#clip0_157_18)">
<path d="M34.094 20.05H32.2996C30.5285 20.05 29.9692 21.1457 29.9692 22.2881V24.9692H33.9309L33.3017 29.0958H29.9692V39.0741C29.2468 39.1907 28.501 39.2373 27.732 39.2373C26.963 39.2373 26.2405 39.1674 25.4948 39.0741V29.0958H21.8826V24.9692H25.4948V21.8218C25.4948 18.2548 27.6155 16.2731 30.8781 16.2731C32.4394 16.2731 34.0707 16.5529 34.0707 16.5529V20.0733L34.094 20.05ZM27.9883 56C12.561 56 0 43.4571 0 28C0 12.5429 12.561 0 27.9883 0C43.4157 0 55.9767 12.5662 55.9767 28C55.9767 43.4338 43.4157 56 27.9883 56ZM27.9883 2.33139C13.8427 2.33139 2.33042 13.8485 2.33042 28C2.33042 42.1515 13.8427 53.6686 27.9883 53.6686C42.134 53.6686 53.6463 42.1515 53.6463 28C53.6463 13.8485 42.134 2.33139 27.9883 2.33139Z" fill="#E8C889"/>
</g>
<defs>
<clipPath id="clip0_157_18">
<rect width="56" height="56" fill="white"/>
</clipPath>
</defs>
</svg>
