<svg width="56" height="56" viewBox="0 0 56 56" fill="none" xmlns="http://www.w3.org/2000/svg">
<g clip-path="url(#clip0_157_15)">
<path d="M26.8343 21.6586C24.3164 22.1482 22.2415 24.1998 21.7519 26.741C20.8893 31.2873 24.806 35.2273 29.3522 34.3414C31.8701 33.8518 33.945 31.8002 34.4346 29.2589C35.2973 24.7127 31.3805 20.7727 26.8343 21.6586ZM27.0908 32.0333C25.6453 31.6836 24.4563 30.4946 24.1066 29.0491C23.3605 25.9717 26.0649 23.244 29.1424 24.0133C30.5878 24.363 31.7768 25.552 32.1266 26.9975C32.8726 30.0749 30.1682 32.8027 27.0674 32.0333H27.0908ZM33.2456 14.8743H22.7544C18.3947 14.8743 14.8743 18.3947 14.8743 22.7544V33.2456C14.8743 37.6053 18.3947 41.1257 22.7544 41.1257H33.2456C37.6053 41.1257 41.1257 37.6053 41.1257 33.2456V22.7544C41.1257 18.3947 37.6053 14.8743 33.2456 14.8743ZM38.6545 33.2456C38.6545 36.2298 36.2298 38.6545 33.2456 38.6545H22.7544C19.7702 38.6545 17.3455 36.2298 17.3455 33.2456V22.7544C17.3455 19.7702 19.7702 17.3455 22.7544 17.3455H33.2456C36.2298 17.3455 38.6545 19.7702 38.6545 22.7544V33.2456ZM36.4863 21.0991C36.4863 21.9384 35.7868 22.6378 34.9475 22.6378C34.1082 22.6378 33.4088 21.9384 33.4088 21.0991C33.4088 20.2598 34.1082 19.5604 34.9475 19.5604C35.7868 19.5604 36.4863 20.2598 36.4863 21.0991ZM28 56C12.5662 56 0 43.4571 0 28C0 12.5429 12.5662 0 28 0C43.4338 0 56 12.5662 56 28C56 43.4338 43.4338 56 28 56ZM28 2.33139C13.8485 2.33139 2.33139 13.8485 2.33139 28C2.33139 42.1515 13.8485 53.6686 28 53.6686C42.1515 53.6686 53.6686 42.1515 53.6686 28C53.6686 13.8485 42.1515 2.33139 28 2.33139Z" fill="#E8C889"/>
</g>
<defs>
<clipPath id="clip0_157_15">
<rect width="56" height="56" fill="white"/>
</clipPath>
</defs>
</svg>
