<svg width="55" height="55" viewBox="0 0 55 55" fill="none" xmlns="http://www.w3.org/2000/svg">
<g clip-path="url(#clip0_157_21)">
<path d="M27.6259 16.9143C21.881 16.9143 17.2118 21.5834 17.2118 27.3283C17.2118 29.228 17.7382 31.082 18.7453 32.7299L19.02 33.1648L17.99 37.0558L21.9039 36.0029L22.3387 36.2547C23.9638 37.216 25.7948 37.7195 27.6488 37.7195C33.3937 37.7195 38.0628 33.0504 38.0628 27.3055C38.0628 21.5605 33.3937 16.8914 27.6488 16.8914L27.6259 16.9143ZM33.737 31.2651C33.3479 32.2035 32.3866 32.8215 31.4024 33.0046C30.464 33.1877 29.7087 32.8901 28.839 32.5926C28.0608 32.3408 27.3283 31.9746 26.6417 31.5397C25.2684 30.6929 24.0553 29.5714 23.1169 28.2667C22.8194 27.8777 22.5447 27.4428 22.293 27.0308C21.9725 26.4586 21.675 25.8635 21.5148 25.2226C21.4461 24.948 21.4232 24.6733 21.4232 24.3987C21.4232 23.4374 21.7894 22.4532 22.5447 21.8352C22.9796 21.469 23.6434 21.3088 24.1469 21.6063C24.6962 21.9039 24.9709 22.6821 25.2226 23.2314C25.4286 23.6434 25.6346 24.2156 25.566 24.6733C25.4744 25.154 25.1082 25.5431 24.8107 25.9093C24.6047 26.1382 24.5818 26.3442 24.742 26.5959C25.7262 28.2439 27.0995 29.434 28.9076 30.1665C29.1594 30.258 29.3425 30.2351 29.5027 30.0291C29.8231 29.64 30.1207 28.9076 30.6013 28.7016C31.2193 28.4499 31.906 28.7932 32.4324 29.1136C32.913 29.4112 33.737 29.7774 33.8743 30.3724C33.943 30.67 33.8743 30.9675 33.7599 31.2651H33.737ZM27.6259 40.1685C25.4973 40.1685 23.3916 39.6421 21.5148 38.6122L14.5339 40.489L16.3878 33.531C15.335 31.6313 14.7857 29.5027 14.7857 27.3283C14.7857 20.2559 20.5535 14.4881 27.6259 14.4881C34.6983 14.4881 40.4661 20.2559 40.4661 27.3283C40.4661 34.4007 34.6983 40.1685 27.6259 40.1685ZM27.4886 55C12.3367 55 0 42.6633 0 27.4886C0 12.3138 12.3367 0 27.4886 0C42.6404 0 54.9771 12.3367 54.9771 27.4886C54.9771 42.6404 42.6404 54.9771 27.4886 54.9771V55ZM27.4886 2.28881C13.5955 2.28881 2.28881 13.5955 2.28881 27.4886C2.28881 41.3816 13.5955 52.6883 27.4886 52.6883C41.3816 52.6883 52.6883 41.3816 52.6883 27.4886C52.6883 13.5955 41.3816 2.28881 27.4886 2.28881Z" fill="#E8C889"/>
</g>
<defs>
<clipPath id="clip0_157_21">
<rect width="55" height="55" fill="white"/>
</clipPath>
</defs>
</svg>
